<svg width="24" height="24" viewBox="0 0 6.35 6.35" xmlns:xlink="http://www.w3.org/1999/xlink" xmlns="http://www.w3.org/2000/svg"><defs><filter style="color-interpolation-filters:sRGB" id="b" x="-.089" width="1.177" y="-.089" height="1.177"><feGaussianBlur stdDeviation=".166"/></filter><filter style="color-interpolation-filters:sRGB" id="c" x="-.089" width="1.177" y="-.089" height="1.177"><feGaussianBlur stdDeviation=".166"/></filter><filter style="color-interpolation-filters:sRGB" id="e" x="-.092" y="-.093" width="1.184" height="1.185"><feGaussianBlur stdDeviation=".088"/></filter><radialGradient xlink:href="#a" id="d" cx="209.269" cy="204.746" fx="209.269" fy="204.746" r="2.243" gradientUnits="userSpaceOnUse" gradientTransform="matrix(1.0513 1.0513 -1.05332 1.04926 -1.138 -142.365)"/><linearGradient id="a"><stop style="stop-color:#5f5f60;stop-opacity:1" offset="0"/><stop style="stop-color:#3b3b3b;stop-opacity:1" offset="1"/></linearGradient></defs><path style="opacity:1;vector-effect:none;fill:#e3937e;fill-opacity:.61960787;fill-rule:evenodd;stroke:none;stroke-width:.28824854;stroke-linecap:butt;stroke-linejoin:miter;stroke-miterlimit:4;stroke-dasharray:none;stroke-dashoffset:0;stroke-opacity:1;paint-order:stroke markers fill;filter:url(#b)" transform="rotate(60 230.951 -133.039) scale(.9179)" d="M253.802 141.918h4.49v4.49h-4.49z"/><path style="opacity:1;vector-effect:none;fill:#e3937e;fill-opacity:.61960787;fill-rule:evenodd;stroke:none;stroke-width:.28824854;stroke-linecap:butt;stroke-linejoin:miter;stroke-miterlimit:4;stroke-dasharray:none;stroke-dashoffset:0;stroke-opacity:1;paint-order:stroke markers fill;filter:url(#c)" transform="rotate(30 497.476 -132.779) scale(.9179)" d="M147.417 250.627h4.49v4.49h-4.49z"/><path transform="rotate(60 251.71 -145.325)" style="opacity:1;vector-effect:none;fill:#e3937e;fill-opacity:.61960787;fill-rule:evenodd;stroke:none;stroke-width:.26458338;stroke-linecap:butt;stroke-linejoin:miter;stroke-miterlimit:4;stroke-dasharray:none;stroke-dashoffset:0;stroke-opacity:1;paint-order:stroke markers fill" d="M253.987 142.102h4.121v4.121h-4.121z"/><path transform="rotate(30 542.36 -145.325)" style="opacity:1;vector-effect:none;fill:#e3937e;fill-opacity:.61960787;fill-rule:evenodd;stroke:none;stroke-width:.26458338;stroke-linecap:butt;stroke-linejoin:miter;stroke-miterlimit:4;stroke-dasharray:none;stroke-dashoffset:0;stroke-opacity:1;paint-order:stroke markers fill" d="M147.601 250.812h4.121v4.121h-4.121z"/><path style="opacity:1;vector-effect:none;fill:url(#d);fill-opacity:1;fill-rule:evenodd;stroke:#fff;stroke-width:.26458356;stroke-linecap:butt;stroke-linejoin:miter;stroke-miterlimit:4;stroke-dasharray:none;stroke-dashoffset:0;stroke-opacity:1;paint-order:stroke markers fill" d="m3.175 296.303-1.9-.84.48-1.633-.48-1.633 1.9-.84 1.9.84-.48 1.633.48 1.634z" transform="translate(0 -290.65)"/><path d="m2.032 294.962.091-.618q.03-.193.091-.364.06-.174.175-.31.117-.137.318-.224-.11-.136-.227-.284-.114-.148-.216-.273-.099-.129-.16-.201h.61q.107.133.243.318.137.186.265.353l.11.163.114.163q.167-.087.227-.25.065-.167.084-.364l.045-.383H4.3l-.042.41q-.027.284-.163.522-.136.235-.432.368.163.231.33.477.17.243.326.497h-.58q-.201-.349-.398-.648-.197-.3-.402-.572-.167.08-.227.25-.06.17-.091.379l-.087.59z" style="font-weight:600;font-size:3.78982px;line-height:1.25;font-family:'Noto Sans Hebrew';-inkscape-font-specification:'Noto Sans Hebrew Semi-Bold';text-align:center;text-anchor:middle;fill:#5fec94;stroke-width:.473726;filter:url(#e)" transform="translate(0 -290.65)"/><path d="m2.032 294.962.091-.618q.03-.193.091-.364.06-.174.175-.31.117-.137.318-.224-.11-.136-.227-.284-.114-.148-.216-.273-.099-.129-.16-.201h.61q.107.133.243.318.137.186.265.353l.11.163.114.163q.167-.087.227-.25.065-.167.084-.364l.045-.383H4.3l-.042.41q-.027.284-.163.522-.136.235-.432.368.163.231.33.477.17.243.326.497h-.58q-.201-.349-.398-.648-.197-.3-.402-.572-.167.08-.227.25-.06.17-.091.379l-.087.59z" style="font-weight:600;font-size:3.78982px;line-height:1.25;font-family:'Noto Sans Hebrew';-inkscape-font-specification:'Noto Sans Hebrew Semi-Bold';text-align:center;text-anchor:middle;fill:#5fec94;stroke-width:.473726" transform="translate(0 -290.65)"/></svg>
